<?xml version="1.0" standalone="no"?>
<!DOCTYPE svg PUBLIC "-//W3C//DTD SVG 20010904//EN"
 "http://www.w3.org/TR/2001/REC-SVG-20010904/DTD/svg10.dtd">
<svg version="1.0" xmlns="http://www.w3.org/2000/svg"
 width="154.000000pt" height="155.000000pt" viewBox="0 0 154.000000 155.000000"
 preserveAspectRatio="xMidYMid meet">
<metadata>
Created by potrace 1.16, written by Peter Selinger 2001-2019
</metadata>
<g transform="translate(0.000000,155.000000) scale(0.100000,-0.100000)"
fill="#000000" stroke="none">
<path d="M686 1439 c-21 -25 -26 -41 -26 -88 l0 -58 -39 -7 c-21 -3 -73 -23
-115 -44 l-77 -39 -15 26 c-18 30 -103 91 -126 91 -34 0 -40 -136 -8 -187 11
-18 25 -33 30 -33 6 0 -1 -19 -15 -42 -65 -105 -94 -203 -95 -314 0 -90 9
-134 26 -134 27 0 112 93 123 136 13 48 5 104 -15 104 -7 0 -11 6 -8 13 3 8
-9 20 -28 30 -30 16 -21 16 16 1 10 -4 16 2 19 18 3 16 5 12 6 -13 0 -19 6
-40 13 -47 6 -6 12 -34 12 -60 0 -65 -39 -131 -99 -168 -25 -16 -45 -33 -45
-39 1 -34 49 -142 85 -191 l23 -31 -57 -17 c-47 -14 -62 -15 -84 -5 -35 16
-39 11 -26 -36 30 -108 145 -172 230 -127 l36 18 -11 -28 c-13 -34 -8 -39 49
-45 42 -5 48 -3 80 31 27 29 40 35 60 31 14 -3 36 -7 49 -10 22 -4 24 -9 20
-43 -4 -34 0 -42 41 -82 l45 -44 45 44 c39 38 45 50 45 86 l0 41 53 6 c41 4
54 2 64 -11 29 -40 48 -52 83 -52 20 0 44 6 55 13 17 13 17 16 3 44 l-15 31
35 -24 c90 -61 230 12 249 130 6 40 5 41 -30 25 -18 -8 -37 -7 -80 6 l-57 16
29 42 c26 40 81 164 81 186 0 5 -8 12 -18 15 -23 8 -90 73 -114 111 -21 36
-23 100 -3 135 8 14 14 39 15 56 0 16 7 39 16 50 15 18 15 18 5 -3 -12 -23
-15 -63 -5 -63 3 0 15 5 27 11 16 7 14 4 -6 -11 -15 -12 -25 -26 -21 -31 3 -5
-2 -9 -10 -9 -19 0 -31 -56 -21 -101 8 -36 102 -139 127 -139 13 0 18 16 23
75 12 129 -14 247 -80 360 l-27 45 20 25 c12 14 24 40 27 57 10 44 -4 138 -21
145 -22 8 -124 -64 -137 -97 l-13 -28 -52 33 c-29 18 -81 41 -117 51 l-65 19
0 41 c0 91 -36 134 -114 134 -37 0 -48 -5 -70 -31z m-54 -449 c28 -11 66 -34
85 -52 l33 -32 0 -219 0 -219 -41 35 c-23 21 -66 43 -100 53 l-59 18 0 218 c0
246 -6 232 82 198z m348 -198 l0 -218 -51 -13 c-27 -7 -72 -28 -100 -46 l-49
-34 0 219 0 219 37 30 c21 17 58 37 83 45 87 27 80 43 80 -202z m-170 -559 c0
-106 -2 -119 -21 -140 l-22 -22 -28 20 -29 20 0 120 0 119 50 0 50 0 0 -117z"/>
</g>
</svg>
